<svg width="400" height="400" viewBox="0 0 400 400" xmlns="http://www.w3.org/2000/svg">
  <g transform="translate(200,200)">
    <!-- Center square -->
    <rect x="-20" y="-20" width="40" height="40" fill="none" stroke="#333" stroke-width="2" data-region="center-square"/>
    
    <!-- Inner triangular sections -->
    <g data-region="inner-sections">
      <polygon points="0,-20 -30,-50 30,-50" fill="none" stroke="#333" stroke-width="2" data-region="inner-triangle-1"/>
      <polygon points="20,0 50,-30 50,30" fill="none" stroke="#333" stroke-width="2" data-region="inner-triangle-2"/>
      <polygon points="0,20 30,50 -30,50" fill="none" stroke="#333" stroke-width="2" data-region="inner-triangle-3"/>
      <polygon points="-20,0 -50,30 -50,-30" fill="none" stroke="#333" stroke-width="2" data-region="inner-triangle-4"/>
    </g>
    
    <!-- Middle geometric ring -->
    <g data-region="middle-shapes">
      <rect x="-15" y="-80" width="30" height="30" fill="none" stroke="#333" stroke-width="2" data-region="middle-rect-1"/>
      <rect x="50" y="-15" width="30" height="30" fill="none" stroke="#333" stroke-width="2" data-region="middle-rect-2"/>
      <rect x="-15" y="50" width="30" height="30" fill="none" stroke="#333" stroke-width="2" data-region="middle-rect-3"/>
      <rect x="-80" y="-15" width="30" height="30" fill="none" stroke="#333" stroke-width="2" data-region="middle-rect-4"/>
    </g>
    
    <!-- Outer hexagonal sections -->
    <g data-region="outer-hexagons">
      <polygon points="0,-120 20,-100 20,-80 0,-60 -20,-80 -20,-100" 
               fill="none" stroke="#333" stroke-width="2" data-region="hex-1"/>
      <polygon points="85,-85 105,-65 105,-45 85,-25 65,-45 65,-65" 
               fill="none" stroke="#333" stroke-width="2" data-region="hex-2"/>
      <polygon points="120,0 100,20 80,20 60,0 80,-20 100,-20" 
               fill="none" stroke="#333" stroke-width="2" data-region="hex-3"/>
      <polygon points="85,85 65,105 45,105 25,85 45,65 65,65" 
               fill="none" stroke="#333" stroke-width="2" data-region="hex-4"/>
      <polygon points="0,120 -20,100 -20,80 0,60 20,80 20,100" 
               fill="none" stroke="#333" stroke-width="2" data-region="hex-5"/>
      <polygon points="-85,85 -105,65 -105,45 -85,25 -65,45 -65,65" 
               fill="none" stroke="#333" stroke-width="2" data-region="hex-6"/>
      <polygon points="-120,0 -100,-20 -80,-20 -60,0 -80,20 -100,20" 
               fill="none" stroke="#333" stroke-width="2" data-region="hex-7"/>
      <polygon points="-85,-85 -65,-105 -45,-105 -25,-85 -45,-65 -65,-65" 
               fill="none" stroke="#333" stroke-width="2" data-region="hex-8"/>
    </g>
    
    <!-- Corner decorative squares -->
    <g data-region="corner-decorations">
      <rect x="-110" y="-110" width="20" height="20" fill="none" stroke="#333" stroke-width="2" data-region="corner-1"/>
      <rect x="90" y="-110" width="20" height="20" fill="none" stroke="#333" stroke-width="2" data-region="corner-2"/>
      <rect x="90" y="90" width="20" height="20" fill="none" stroke="#333" stroke-width="2" data-region="corner-3"/>
      <rect x="-110" y="90" width="20" height="20" fill="none" stroke="#333" stroke-width="2" data-region="corner-4"/>
    </g>
    
    <!-- Outer frame -->
    <rect x="-140" y="-140" width="280" height="280" fill="none" stroke="#333" stroke-width="3" data-region="outer-frame"/>
    
    <!-- Connecting lines -->
    <g data-region="connecting-lines" stroke="#333" stroke-width="1" opacity="0.5">
      <line x1="-140" y1="-140" x2="140" y2="140" data-region="diagonal-1"/>
      <line x1="140" y1="-140" x2="-140" y2="140" data-region="diagonal-2"/>
      <line x1="0" y1="-140" x2="0" y2="140" data-region="vertical"/>
      <line x1="-140" y1="0" x2="140" y2="0" data-region="horizontal"/>
    </g>
  </g>
</svg>