<svg width="400" height="400" viewBox="0 0 400 400" xmlns="http://www.w3.org/2000/svg">
  <g transform="translate(200,200)">
    <!-- Center circle -->
    <circle cx="0" cy="0" r="20" fill="none" stroke="#333" stroke-width="2" data-region="center" />
    
    <!-- Inner petals -->
    <g data-region="inner-petals">
      <path d="M 0,-25 Q 18,-35 25,-18 Q 35,-25 18,0 Q 25,18 0,25 Q -18,35 -25,18 Q -35,25 -18,0 Q -25,-18 0,-25 Z" 
            fill="none" stroke="#333" stroke-width="2" data-region="inner-petal-1"/>
    </g>
    
    <!-- Middle ring -->
    <circle cx="0" cy="0" r="60" fill="none" stroke="#333" stroke-width="2" data-region="middle-ring"/>
    
    <!-- Outer petals -->
    <g data-region="outer-petals">
      <path d="M 0,-85 Q 25,-95 35,-70 Q 45,-85 25,-60 Q 35,-45 0,-55 Q -25,-45 -35,-70 Q -45,-85 -25,-60 Q -35,-95 0,-85 Z" 
            fill="none" stroke="#333" stroke-width="2" data-region="outer-petal-1"/>
      <path d="M 60,-60 Q 85,-70 95,-45 Q 105,-60 85,-35 Q 95,-20 60,-30 Q 45,-20 35,-45 Q 25,-60 45,-35 Q 35,-70 60,-60 Z" 
            fill="none" stroke="#333" stroke-width="2" data-region="outer-petal-2"/>
      <path d="M 85,0 Q 95,25 70,35 Q 85,45 60,25 Q 45,35 55,0 Q 45,-25 70,-35 Q 85,-45 60,-25 Q 95,-25 85,0 Z" 
            fill="none" stroke="#333" stroke-width="2" data-region="outer-petal-3"/>
      <path d="M 60,60 Q 70,85 45,95 Q 60,105 35,85 Q 20,95 30,60 Q 20,45 45,35 Q 60,25 35,45 Q 70,35 60,60 Z" 
            fill="none" stroke="#333" stroke-width="2" data-region="outer-petal-4"/>
      <path d="M 0,85 Q -25,95 -35,70 Q -45,85 -25,60 Q -35,45 0,55 Q 25,45 35,70 Q 45,85 25,60 Q 35,95 0,85 Z" 
            fill="none" stroke="#333" stroke-width="2" data-region="outer-petal-5"/>
      <path d="M -60,60 Q -85,70 -95,45 Q -105,60 -85,35 Q -95,20 -60,30 Q -45,20 -35,45 Q -25,60 -45,35 Q -35,70 -60,60 Z" 
            fill="none" stroke="#333" stroke-width="2" data-region="outer-petal-6"/>
      <path d="M -85,0 Q -95,-25 -70,-35 Q -85,-45 -60,-25 Q -45,-35 -55,0 Q -45,25 -70,35 Q -85,45 -60,25 Q -95,25 -85,0 Z" 
            fill="none" stroke="#333" stroke-width="2" data-region="outer-petal-7"/>
      <path d="M -60,-60 Q -70,-85 -45,-95 Q -60,-105 -35,-85 Q -20,-95 -30,-60 Q -20,-45 -45,-35 Q -60,-25 -35,-45 Q -70,-35 -60,-60 Z" 
            fill="none" stroke="#333" stroke-width="2" data-region="outer-petal-8"/>
    </g>
    
    <!-- Outer decorative elements -->
    <g data-region="decorative">
      <circle cx="0" cy="-120" r="8" fill="none" stroke="#333" stroke-width="2" data-region="deco-1"/>
      <circle cx="85" cy="-85" r="8" fill="none" stroke="#333" stroke-width="2" data-region="deco-2"/>
      <circle cx="120" cy="0" r="8" fill="none" stroke="#333" stroke-width="2" data-region="deco-3"/>
      <circle cx="85" cy="85" r="8" fill="none" stroke="#333" stroke-width="2" data-region="deco-4"/>
      <circle cx="0" cy="120" r="8" fill="none" stroke="#333" stroke-width="2" data-region="deco-5"/>
      <circle cx="-85" cy="85" r="8" fill="none" stroke="#333" stroke-width="2" data-region="deco-6"/>
      <circle cx="-120" cy="0" r="8" fill="none" stroke="#333" stroke-width="2" data-region="deco-7"/>
      <circle cx="-85" cy="-85" r="8" fill="none" stroke="#333" stroke-width="2" data-region="deco-8"/>
    </g>
    
    <!-- Outer boundary -->
    <circle cx="0" cy="0" r="150" fill="none" stroke="#333" stroke-width="3" data-region="boundary"/>
  </g>
</svg>